<svg width="278" height="26" viewBox="0 0 278 26" fill="none" xmlns="http://www.w3.org/2000/svg">
<path d="M0.232795 25V0.689999H9.0728C17.7088 0.689999 22.0948 5.008 22.0948 12.556V12.828C22.0948 20.41 17.6068 25 9.0388 25H0.232795ZM7.2368 19.628H8.8348C12.9828 19.628 14.8188 17.452 14.8188 12.93V12.658C14.8188 8.034 12.9828 6.062 8.7668 6.062H7.2368V19.628ZM33.4904 25V0.689999H50.2864V6.062H40.4264V10.244H48.2804V15.208H40.4264V19.628H50.8304V25H33.4904ZM71.3063 25.408C64.5063 25.408 61.0383 22.552 60.8343 17.282H67.4643C67.6343 19.016 68.4163 20.444 71.3063 20.444C73.3123 20.444 74.4343 19.458 74.4343 18.03C74.4343 16.534 73.5163 16.126 70.5923 15.684C63.7243 14.868 61.4123 12.828 61.4123 7.932C61.4123 3.546 65.0163 0.349999 70.8303 0.349999C76.6783 0.349999 79.9763 2.798 80.4183 7.932H73.9583C73.7203 6.198 72.7343 5.314 70.8303 5.314C68.9603 5.314 68.0083 6.164 68.0083 7.388C68.0083 8.748 68.7563 9.36 71.7823 9.768C77.9363 10.448 81.0983 12.046 81.0983 17.316C81.0983 21.77 77.5623 25.408 71.3063 25.408ZM92.538 25V0.689999H99.576V25H92.538ZM123.803 25.408C115.541 25.408 111.053 20.274 111.053 12.998V12.726C111.053 5.314 116.493 0.316 123.803 0.316C129.549 0.316 134.649 2.934 135.125 9.258H128.223C127.883 6.98 126.421 5.79 123.837 5.79C120.403 5.79 118.329 8.442 118.329 12.828V13.1C118.329 17.044 119.791 20.104 124.007 20.104C127.407 20.104 128.699 18.37 128.835 16.432H124.279V11.57H135.703V14.562C135.703 20.75 131.657 25.408 123.803 25.408ZM147.097 25V0.689999H154.951L162.737 14.392V0.689999H168.823V25H162.091L153.217 9.734V25H147.097ZM196.214 25V0.689999H203.218V19.594H212.398V25H196.214ZM222.089 25L229.875 0.689999H238.885L246.603 25H239.225L237.933 20.478H229.875L228.583 25H222.089ZM233.921 6.334L231.235 15.684H236.573L233.921 6.334ZM257.383 25V0.689999H268.229C273.975 0.689999 276.423 3.274 276.423 7.048V7.184C276.423 9.904 275.029 11.706 272.309 12.42C275.301 12.93 277.171 14.732 277.171 18.098V18.234C277.171 22.586 274.349 25 268.331 25H257.383ZM264.183 10.346H266.835C269.011 10.346 269.827 9.598 269.827 7.864V7.728C269.827 6.062 268.943 5.314 266.835 5.314H264.183V10.346ZM264.183 20.342H267.073C269.283 20.342 270.303 19.322 270.303 17.52V17.384C270.303 15.548 269.317 14.596 266.869 14.596H264.183V20.342Z" fill="#EB534C"/>
</svg>
